<mxfile host="Electron" agent="Mozilla/5.0 (Macintosh; Intel Mac OS X 10_15_7) AppleWebKit/537.36 (KHTML, like Gecko) draw.io/27.0.9 Chrome/134.0.6998.205 Electron/35.4.0 Safari/537.36" version="27.0.9">
  <diagram name="Page-1" id="t7KQoYwe9hfdWxtNn_Mi">
    <mxGraphModel dx="743" dy="739" grid="1" gridSize="10" guides="1" tooltips="1" connect="1" arrows="1" fold="1" page="1" pageScale="1" pageWidth="1169" pageHeight="827" math="0" shadow="0">
      <root>
        <mxCell id="0" />
        <mxCell id="1" parent="0" />
        <mxCell id="_6eoPlfErRumKplYd302-6" value="" style="whiteSpace=wrap;html=1;fillColor=#bac8d3;strokeColor=#23445d;" vertex="1" parent="1">
          <mxGeometry x="230" y="280" width="490" height="380" as="geometry" />
        </mxCell>
        <mxCell id="_6eoPlfErRumKplYd302-2" value="Data&lt;div&gt;Scientist&lt;/div&gt;" style="fillColor=#0000FF;verticalLabelPosition=bottom;sketch=0;html=1;strokeColor=#ffffff;verticalAlign=top;align=center;points=[[0.145,0.145,0],[0.5,0,0],[0.855,0.145,0],[1,0.5,0],[0.855,0.855,0],[0.5,1,0],[0.145,0.855,0],[0,0.5,0]];pointerEvents=1;shape=mxgraph.cisco_safe.compositeIcon;bgIcon=ellipse;resIcon=mxgraph.cisco_safe.capability.user;aspect=fixed;" vertex="1" parent="1">
          <mxGeometry x="420" y="439" width="50" height="50" as="geometry" />
        </mxCell>
        <mxCell id="_6eoPlfErRumKplYd302-3" value="Data&lt;div&gt;Analytics&lt;/div&gt;" style="fillColor=#9933FF;verticalLabelPosition=bottom;sketch=0;html=1;strokeColor=#ffffff;verticalAlign=top;align=center;points=[[0.145,0.145,0],[0.5,0,0],[0.855,0.145,0],[1,0.5,0],[0.855,0.855,0],[0.5,1,0],[0.145,0.855,0],[0,0.5,0]];pointerEvents=1;shape=mxgraph.cisco_safe.compositeIcon;bgIcon=ellipse;resIcon=mxgraph.cisco_safe.capability.user;aspect=fixed;" vertex="1" parent="1">
          <mxGeometry x="610" y="439" width="50" height="50" as="geometry" />
        </mxCell>
        <mxCell id="_6eoPlfErRumKplYd302-4" value="Analytics&lt;div&gt;Engineer&lt;/div&gt;" style="fillColor=#9933FF;verticalLabelPosition=bottom;sketch=0;html=1;strokeColor=#ffffff;verticalAlign=top;align=center;points=[[0.145,0.145,0],[0.5,0,0],[0.855,0.145,0],[1,0.5,0],[0.855,0.855,0],[0.5,1,0],[0.145,0.855,0],[0,0.5,0]];pointerEvents=1;shape=mxgraph.cisco_safe.compositeIcon;bgIcon=ellipse;resIcon=mxgraph.cisco_safe.capability.user;aspect=fixed;" vertex="1" parent="1">
          <mxGeometry x="630" y="330" width="50" height="50" as="geometry" />
        </mxCell>
        <mxCell id="_6eoPlfErRumKplYd302-5" value="ML&lt;div&gt;Engineer&lt;/div&gt;" style="fillColor=#0000FF;verticalLabelPosition=bottom;sketch=0;html=1;strokeColor=#ffffff;verticalAlign=top;align=center;points=[[0.145,0.145,0],[0.5,0,0],[0.855,0.145,0],[1,0.5,0],[0.855,0.855,0],[0.5,1,0],[0.145,0.855,0],[0,0.5,0]];pointerEvents=1;shape=mxgraph.cisco_safe.compositeIcon;bgIcon=ellipse;resIcon=mxgraph.cisco_safe.capability.user;aspect=fixed;" vertex="1" parent="1">
          <mxGeometry x="400" y="330" width="50" height="50" as="geometry" />
        </mxCell>
        <mxCell id="_6eoPlfErRumKplYd302-7" value="Data&lt;div&gt;Engineer&lt;/div&gt;" style="fillColor=#0000FF;verticalLabelPosition=bottom;sketch=0;html=1;strokeColor=#ffffff;verticalAlign=top;align=center;points=[[0.145,0.145,0],[0.5,0,0],[0.855,0.145,0],[1,0.5,0],[0.855,0.855,0],[0.5,1,0],[0.145,0.855,0],[0,0.5,0]];pointerEvents=1;shape=mxgraph.cisco_safe.compositeIcon;bgIcon=ellipse;resIcon=mxgraph.cisco_safe.capability.user;aspect=fixed;" vertex="1" parent="1">
          <mxGeometry x="520" y="310" width="50" height="50" as="geometry" />
        </mxCell>
        <mxCell id="_6eoPlfErRumKplYd302-8" value="ML&lt;div&gt;Ops&lt;/div&gt;" style="fillColor=#FF8000;verticalLabelPosition=bottom;sketch=0;html=1;strokeColor=#ffffff;verticalAlign=top;align=center;points=[[0.145,0.145,0],[0.5,0,0],[0.855,0.145,0],[1,0.5,0],[0.855,0.855,0],[0.5,1,0],[0.145,0.855,0],[0,0.5,0]];pointerEvents=1;shape=mxgraph.cisco_safe.compositeIcon;bgIcon=ellipse;resIcon=mxgraph.cisco_safe.capability.user;aspect=fixed;" vertex="1" parent="1">
          <mxGeometry x="330" y="520" width="50" height="50" as="geometry" />
        </mxCell>
        <mxCell id="_6eoPlfErRumKplYd302-9" style="rounded=0;orthogonalLoop=1;jettySize=auto;html=1;entryX=0.145;entryY=0.145;entryDx=0;entryDy=0;entryPerimeter=0;endArrow=none;startFill=0;exitX=0.855;exitY=0.855;exitDx=0;exitDy=0;exitPerimeter=0;dashed=1;" edge="1" parent="1" source="_6eoPlfErRumKplYd302-7" target="_6eoPlfErRumKplYd302-3">
          <mxGeometry relative="1" as="geometry" />
        </mxCell>
        <mxCell id="_6eoPlfErRumKplYd302-10" style="rounded=0;orthogonalLoop=1;jettySize=auto;html=1;exitX=0.145;exitY=0.855;exitDx=0;exitDy=0;exitPerimeter=0;entryX=0.855;entryY=0.145;entryDx=0;entryDy=0;entryPerimeter=0;endArrow=none;startFill=0;dashed=1;" edge="1" parent="1" source="_6eoPlfErRumKplYd302-7" target="_6eoPlfErRumKplYd302-2">
          <mxGeometry relative="1" as="geometry" />
        </mxCell>
        <mxCell id="_6eoPlfErRumKplYd302-12" style="rounded=0;orthogonalLoop=1;jettySize=auto;html=1;exitX=1;exitY=0.5;exitDx=0;exitDy=0;exitPerimeter=0;entryX=0;entryY=0.5;entryDx=0;entryDy=0;entryPerimeter=0;endArrow=none;startFill=0;dashed=1;endFill=1;" edge="1" parent="1" source="_6eoPlfErRumKplYd302-7" target="_6eoPlfErRumKplYd302-4">
          <mxGeometry relative="1" as="geometry" />
        </mxCell>
        <mxCell id="_6eoPlfErRumKplYd302-13" style="rounded=0;orthogonalLoop=1;jettySize=auto;html=1;exitX=0.5;exitY=0;exitDx=0;exitDy=0;exitPerimeter=0;entryX=0.5;entryY=1;entryDx=0;entryDy=0;entryPerimeter=0;endArrow=none;startFill=0;dashed=1;" edge="1" parent="1" source="_6eoPlfErRumKplYd302-3" target="_6eoPlfErRumKplYd302-4">
          <mxGeometry relative="1" as="geometry" />
        </mxCell>
        <mxCell id="_6eoPlfErRumKplYd302-14" style="rounded=0;orthogonalLoop=1;jettySize=auto;html=1;exitX=0;exitY=0.5;exitDx=0;exitDy=0;exitPerimeter=0;entryX=1;entryY=0.5;entryDx=0;entryDy=0;entryPerimeter=0;dashed=1;endArrow=none;startFill=0;endFill=1;" edge="1" parent="1" source="_6eoPlfErRumKplYd302-7" target="_6eoPlfErRumKplYd302-5">
          <mxGeometry relative="1" as="geometry" />
        </mxCell>
        <mxCell id="_6eoPlfErRumKplYd302-16" style="rounded=0;orthogonalLoop=1;jettySize=auto;html=1;exitX=0.5;exitY=0;exitDx=0;exitDy=0;exitPerimeter=0;entryX=0.5;entryY=1;entryDx=0;entryDy=0;entryPerimeter=0;dashed=1;endArrow=none;startFill=0;endFill=1;startArrow=none;" edge="1" parent="1" source="_6eoPlfErRumKplYd302-2" target="_6eoPlfErRumKplYd302-5">
          <mxGeometry relative="1" as="geometry" />
        </mxCell>
        <mxCell id="_6eoPlfErRumKplYd302-17" value="DevOps" style="fillColor=#FF8000;verticalLabelPosition=bottom;sketch=0;html=1;strokeColor=#ffffff;verticalAlign=top;align=center;points=[[0.145,0.145,0],[0.5,0,0],[0.855,0.145,0],[1,0.5,0],[0.855,0.855,0],[0.5,1,0],[0.145,0.855,0],[0,0.5,0]];pointerEvents=1;shape=mxgraph.cisco_safe.compositeIcon;bgIcon=ellipse;resIcon=mxgraph.cisco_safe.capability.user;aspect=fixed;" vertex="1" parent="1">
          <mxGeometry x="250" y="439" width="50" height="50" as="geometry" />
        </mxCell>
        <mxCell id="_6eoPlfErRumKplYd302-19" style="edgeStyle=orthogonalEdgeStyle;rounded=0;orthogonalLoop=1;jettySize=auto;html=1;exitX=1;exitY=0.5;exitDx=0;exitDy=0;exitPerimeter=0;entryX=0;entryY=0.5;entryDx=0;entryDy=0;entryPerimeter=0;endArrow=none;startFill=0;dashed=1;" edge="1" parent="1" source="_6eoPlfErRumKplYd302-2" target="_6eoPlfErRumKplYd302-3">
          <mxGeometry relative="1" as="geometry" />
        </mxCell>
        <mxCell id="_6eoPlfErRumKplYd302-20" style="rounded=0;orthogonalLoop=1;jettySize=auto;html=1;exitX=0.5;exitY=1;exitDx=0;exitDy=0;exitPerimeter=0;entryX=0;entryY=0.5;entryDx=0;entryDy=0;entryPerimeter=0;endArrow=none;startFill=0;dashed=1;" edge="1" parent="1" source="_6eoPlfErRumKplYd302-17" target="_6eoPlfErRumKplYd302-8">
          <mxGeometry relative="1" as="geometry" />
        </mxCell>
        <mxCell id="_6eoPlfErRumKplYd302-21" style="rounded=0;orthogonalLoop=1;jettySize=auto;html=1;exitX=0.5;exitY=1;exitDx=0;exitDy=0;exitPerimeter=0;entryX=1;entryY=0.5;entryDx=0;entryDy=0;entryPerimeter=0;endArrow=none;startFill=0;dashed=1;" edge="1" parent="1" source="_6eoPlfErRumKplYd302-2" target="_6eoPlfErRumKplYd302-8">
          <mxGeometry relative="1" as="geometry" />
        </mxCell>
        <mxCell id="_6eoPlfErRumKplYd302-23" value="" style="ellipse;whiteSpace=wrap;html=1;fillColor=#0000FF;" vertex="1" parent="1">
          <mxGeometry x="250" y="630" width="20" height="20" as="geometry" />
        </mxCell>
        <mxCell id="_6eoPlfErRumKplYd302-24" value="TÃ©cnicos" style="text;html=1;align=center;verticalAlign=middle;resizable=0;points=[];autosize=1;strokeColor=none;fillColor=none;" vertex="1" parent="1">
          <mxGeometry x="264" y="625" width="70" height="30" as="geometry" />
        </mxCell>
        <mxCell id="_6eoPlfErRumKplYd302-25" value="" style="ellipse;whiteSpace=wrap;html=1;fillColor=#FF8000;" vertex="1" parent="1">
          <mxGeometry x="340" y="630" width="20" height="20" as="geometry" />
        </mxCell>
        <mxCell id="_6eoPlfErRumKplYd302-26" value="Infraestructura" style="text;html=1;align=center;verticalAlign=middle;resizable=0;points=[];autosize=1;strokeColor=none;fillColor=none;" vertex="1" parent="1">
          <mxGeometry x="355" y="625" width="100" height="30" as="geometry" />
        </mxCell>
        <mxCell id="_6eoPlfErRumKplYd302-29" value="" style="ellipse;whiteSpace=wrap;html=1;fillColor=#9933FF;" vertex="1" parent="1">
          <mxGeometry x="460" y="630" width="20" height="20" as="geometry" />
        </mxCell>
        <mxCell id="_6eoPlfErRumKplYd302-30" value="Negocio" style="text;html=1;align=center;verticalAlign=middle;resizable=0;points=[];autosize=1;strokeColor=none;fillColor=none;" vertex="1" parent="1">
          <mxGeometry x="474" y="625" width="70" height="30" as="geometry" />
        </mxCell>
      </root>
    </mxGraphModel>
  </diagram>
</mxfile>
